<svg width="1440" height="1024" viewBox="0 0 1440 1024" fill="none" xmlns="http://www.w3.org/2000/svg">
<g clip-path="url(#clip0_380_150)">
<rect width="1440" height="1024" fill="#1D1E20"/>
<g filter="url(#filter0_f_380_150)">
<ellipse cx="210.034" cy="307.478" rx="147.5" ry="144.869" transform="rotate(-51.8609 210.034 307.478)" fill="#00FFD6" fill-opacity="0.08"/>
</g>
<path d="M300.221 286.06H327.181V296.14H300.221V286.06ZM301.181 309.1H331.661V319.5H288.301V263.5H330.621V273.9H301.181V309.1ZM341.973 319.5V263.5H352.693L376.533 303.02H370.853L394.293 263.5H404.933L405.093 319.5H392.933L392.853 282.14H395.093L376.373 313.58H370.533L351.413 282.14H354.133V319.5H341.973ZM418.379 319.5V263.5H442.619C447.632 263.5 451.952 264.327 455.579 265.98C459.206 267.58 462.006 269.9 463.979 272.94C465.952 275.98 466.939 279.607 466.939 283.82C466.939 287.98 465.952 291.58 463.979 294.62C462.006 297.66 459.206 300.007 455.579 301.66C451.952 303.26 447.632 304.06 442.619 304.06H425.579L431.339 298.22V319.5H418.379ZM431.339 299.66L425.579 293.5H441.899C445.899 293.5 448.886 292.647 450.859 290.94C452.832 289.233 453.819 286.86 453.819 283.82C453.819 280.727 452.832 278.327 450.859 276.62C448.886 274.913 445.899 274.06 441.899 274.06H425.579L431.339 267.9V299.66ZM504.173 320.46C499.746 320.46 495.639 319.74 491.853 318.3C488.119 316.86 484.866 314.833 482.093 312.22C479.373 309.607 477.239 306.54 475.693 303.02C474.199 299.5 473.453 295.66 473.453 291.5C473.453 287.34 474.199 283.5 475.693 279.98C477.239 276.46 479.399 273.393 482.173 270.78C484.946 268.167 488.199 266.14 491.933 264.7C495.666 263.26 499.719 262.54 504.093 262.54C508.519 262.54 512.573 263.26 516.253 264.7C519.986 266.14 523.213 268.167 525.933 270.78C528.706 273.393 530.866 276.46 532.413 279.98C533.959 283.447 534.733 287.287 534.733 291.5C534.733 295.66 533.959 299.527 532.413 303.1C530.866 306.62 528.706 309.687 525.933 312.3C523.213 314.86 519.986 316.86 516.253 318.3C512.573 319.74 508.546 320.46 504.173 320.46ZM504.093 309.42C506.599 309.42 508.893 308.993 510.973 308.14C513.106 307.287 514.973 306.06 516.573 304.46C518.173 302.86 519.399 300.967 520.253 298.78C521.159 296.593 521.613 294.167 521.613 291.5C521.613 288.833 521.159 286.407 520.253 284.22C519.399 282.033 518.173 280.14 516.573 278.54C515.026 276.94 513.186 275.713 511.053 274.86C508.919 274.007 506.599 273.58 504.093 273.58C501.586 273.58 499.266 274.007 497.133 274.86C495.053 275.713 493.213 276.94 491.613 278.54C490.013 280.14 488.759 282.033 487.853 284.22C486.999 286.407 486.573 288.833 486.573 291.5C486.573 294.113 486.999 296.54 487.853 298.78C488.759 300.967 489.986 302.86 491.533 304.46C493.133 306.06 494.999 307.287 497.133 308.14C499.266 308.993 501.586 309.42 504.093 309.42ZM556.116 319.5L537.796 263.5H551.236L567.156 313.1H560.436L577.076 263.5H589.076L605.076 313.1H598.596L614.916 263.5H627.316L608.996 319.5H595.076L580.916 275.98H584.596L570.036 319.5H556.116ZM646.471 286.06H673.431V296.14H646.471V286.06ZM647.431 309.1H677.911V319.5H634.551V263.5H676.871V273.9H647.431V309.1ZM688.223 319.5V263.5H712.463C717.476 263.5 721.796 264.327 725.423 265.98C729.049 267.58 731.849 269.9 733.823 272.94C735.796 275.98 736.783 279.607 736.783 283.82C736.783 287.98 735.796 291.58 733.823 294.62C731.849 297.607 729.049 299.9 725.423 301.5C721.796 303.1 717.476 303.9 712.463 303.9H695.423L701.183 298.22V319.5H688.223ZM723.823 319.5L709.823 299.18H723.663L737.823 319.5H723.823ZM701.183 299.66L695.423 293.58H711.743C715.743 293.58 718.729 292.727 720.703 291.02C722.676 289.26 723.663 286.86 723.663 283.82C723.663 280.727 722.676 278.327 720.703 276.62C718.729 274.913 715.743 274.06 711.743 274.06H695.423L701.183 267.9V299.66ZM524.041 417.5V372.06H506.121V361.5H554.921V372.06H537.001V417.5H524.041ZM551.722 417.5L576.682 361.5H589.482L614.522 417.5H600.922L580.442 368.06H585.562L565.002 417.5H551.722ZM564.202 405.5L567.642 395.66H596.442L599.962 405.5H564.202ZM620.332 417.5V361.5H633.292V406.94H661.372V417.5H620.332ZM680.533 384.06H707.493V394.14H680.533V384.06ZM681.493 407.1H711.973V417.5H668.613V361.5H710.933V371.9H681.493V407.1ZM722.285 417.5V361.5H733.005L766.045 401.82H760.845V361.5H773.645V417.5H763.005L729.885 377.18H735.085V417.5H722.285ZM798.495 417.5V372.06H780.575V361.5H829.375V372.06H811.455V417.5H798.495ZM854.357 418.46C849.877 418.46 845.584 417.873 841.477 416.7C837.37 415.473 834.064 413.9 831.557 411.98L835.957 402.22C838.357 403.927 841.184 405.34 844.437 406.46C847.744 407.527 851.077 408.06 854.437 408.06C856.997 408.06 859.05 407.82 860.597 407.34C862.197 406.807 863.37 406.087 864.117 405.18C864.864 404.273 865.237 403.233 865.237 402.06C865.237 400.567 864.65 399.393 863.477 398.54C862.304 397.633 860.757 396.913 858.837 396.38C856.917 395.793 854.784 395.26 852.437 394.78C850.144 394.247 847.824 393.607 845.477 392.86C843.184 392.113 841.077 391.153 839.157 389.98C837.237 388.807 835.664 387.26 834.437 385.34C833.264 383.42 832.677 380.967 832.677 377.98C832.677 374.78 833.53 371.873 835.237 369.26C836.997 366.593 839.61 364.487 843.077 362.94C846.597 361.34 850.997 360.54 856.277 360.54C859.797 360.54 863.264 360.967 866.677 361.82C870.09 362.62 873.104 363.847 875.717 365.5L871.717 375.34C869.104 373.847 866.49 372.753 863.877 372.06C861.264 371.313 858.704 370.94 856.197 370.94C853.69 370.94 851.637 371.233 850.037 371.82C848.437 372.407 847.29 373.18 846.597 374.14C845.904 375.047 845.557 376.113 845.557 377.34C845.557 378.78 846.144 379.953 847.317 380.86C848.49 381.713 850.037 382.407 851.957 382.94C853.877 383.473 855.984 384.007 858.277 384.54C860.624 385.073 862.944 385.687 865.237 386.38C867.584 387.073 869.717 388.007 871.637 389.18C873.557 390.353 875.104 391.9 876.277 393.82C877.504 395.74 878.117 398.167 878.117 401.1C878.117 404.247 877.237 407.127 875.477 409.74C873.717 412.353 871.077 414.46 867.557 416.06C864.09 417.66 859.69 418.46 854.357 418.46Z" fill="white"/>
<path d="M769.707 319.5V263.5H780.427L804.267 303.02H798.587L822.027 263.5H832.667L832.827 319.5H820.667L820.587 282.14H822.827L804.107 313.58H798.267L779.147 282.14H781.867V319.5H769.707ZM870.993 320.46C863.047 320.46 856.833 318.247 852.353 313.82C847.873 309.393 845.633 303.073 845.633 294.86V263.5H858.593V294.38C858.593 299.713 859.687 303.553 861.873 305.9C864.06 308.247 867.127 309.42 871.073 309.42C875.02 309.42 878.087 308.247 880.273 305.9C882.46 303.553 883.553 299.713 883.553 294.38V263.5H896.353V294.86C896.353 303.073 894.113 309.393 889.633 313.82C885.153 318.247 878.94 320.46 870.993 320.46ZM927.56 320.46C923.08 320.46 918.787 319.873 914.68 318.7C910.574 317.473 907.267 315.9 904.76 313.98L909.16 304.22C911.56 305.927 914.387 307.34 917.64 308.46C920.947 309.527 924.28 310.06 927.64 310.06C930.2 310.06 932.254 309.82 933.8 309.34C935.4 308.807 936.574 308.087 937.32 307.18C938.067 306.273 938.44 305.233 938.44 304.06C938.44 302.567 937.854 301.393 936.68 300.54C935.507 299.633 933.96 298.913 932.04 298.38C930.12 297.793 927.987 297.26 925.64 296.78C923.347 296.247 921.027 295.607 918.68 294.86C916.387 294.113 914.28 293.153 912.36 291.98C910.44 290.807 908.867 289.26 907.64 287.34C906.467 285.42 905.88 282.967 905.88 279.98C905.88 276.78 906.734 273.873 908.44 271.26C910.2 268.593 912.814 266.487 916.28 264.94C919.8 263.34 924.2 262.54 929.48 262.54C933 262.54 936.467 262.967 939.88 263.82C943.294 264.62 946.307 265.847 948.92 267.5L944.92 277.34C942.307 275.847 939.694 274.753 937.08 274.06C934.467 273.313 931.907 272.94 929.4 272.94C926.894 272.94 924.84 273.233 923.24 273.82C921.64 274.407 920.494 275.18 919.8 276.14C919.107 277.047 918.76 278.113 918.76 279.34C918.76 280.78 919.347 281.953 920.52 282.86C921.694 283.713 923.24 284.407 925.16 284.94C927.08 285.473 929.187 286.007 931.48 286.54C933.827 287.073 936.147 287.687 938.44 288.38C940.787 289.073 942.92 290.007 944.84 291.18C946.76 292.353 948.307 293.9 949.48 295.82C950.707 297.74 951.32 300.167 951.32 303.1C951.32 306.247 950.44 309.127 948.68 311.74C946.92 314.353 944.28 316.46 940.76 318.06C937.294 319.66 932.894 320.46 927.56 320.46ZM960.176 319.5V263.5H973.136V308.94H1001.22V319.5H960.176ZM1008.46 319.5V263.5H1021.42V319.5H1008.46ZM1034.71 319.5V263.5H1045.43L1069.27 303.02H1063.59L1087.03 263.5H1097.67L1097.83 319.5H1085.67L1085.59 282.14H1087.83L1069.11 313.58H1063.27L1044.15 282.14H1046.87V319.5H1034.71Z" fill="#00FFD6"/>
<path d="M416.679 498.788C415.543 498.788 414.487 498.58 413.511 498.164C412.551 497.748 411.719 497.172 411.015 496.436C410.327 495.684 409.823 494.812 409.503 493.82L412.215 492.644C412.647 493.668 413.271 494.476 414.087 495.068C414.903 495.644 415.823 495.932 416.847 495.932C417.423 495.932 417.919 495.844 418.335 495.668C418.767 495.476 419.095 495.22 419.319 494.9C419.559 494.58 419.679 494.196 419.679 493.748C419.679 493.22 419.519 492.788 419.199 492.452C418.895 492.1 418.431 491.828 417.807 491.636L414.375 490.532C412.983 490.1 411.935 489.452 411.231 488.588C410.527 487.724 410.175 486.708 410.175 485.54C410.175 484.516 410.423 483.612 410.919 482.828C411.431 482.044 412.135 481.436 413.031 481.004C413.943 480.556 414.983 480.332 416.151 480.332C417.223 480.332 418.207 480.524 419.103 480.908C419.999 481.276 420.767 481.796 421.407 482.468C422.063 483.124 422.551 483.9 422.871 484.796L420.183 485.996C419.831 485.1 419.303 484.412 418.599 483.932C417.895 483.436 417.079 483.188 416.151 483.188C415.607 483.188 415.127 483.284 414.711 483.476C414.295 483.652 413.967 483.908 413.727 484.244C413.503 484.564 413.391 484.948 413.391 485.396C413.391 485.892 413.551 486.332 413.871 486.716C414.191 487.084 414.679 487.372 415.335 487.58L418.623 488.612C420.047 489.076 421.111 489.716 421.815 490.532C422.535 491.348 422.895 492.356 422.895 493.556C422.895 494.58 422.631 495.484 422.103 496.268C421.575 497.052 420.847 497.668 419.919 498.116C418.991 498.564 417.911 498.788 416.679 498.788ZM425.57 498.5V480.332H428.714V492.236L427.514 491.876L433.658 485.444H437.57L432.746 490.7L437.666 498.5H434.066L429.794 491.732L431.666 491.348L427.73 495.572L428.714 493.652V498.5H425.57ZM439.422 498.5V485.444H442.566V498.5H439.422ZM439.422 483.98V480.62H442.566V483.98H439.422ZM445.469 498.5V480.332H448.613V498.5H445.469ZM451.515 498.5V480.332H454.659V498.5H451.515ZM459.074 498.5V488.252H456.77V485.444H459.074V485.012C459.074 484.02 459.274 483.18 459.674 482.492C460.09 481.788 460.666 481.252 461.402 480.884C462.138 480.516 463.01 480.332 464.018 480.332C464.21 480.332 464.418 480.348 464.642 480.38C464.882 480.396 465.082 480.42 465.242 480.452V483.164C465.082 483.132 464.93 483.116 464.786 483.116C464.658 483.1 464.538 483.092 464.426 483.092C463.722 483.092 463.178 483.252 462.794 483.572C462.41 483.876 462.218 484.356 462.218 485.012V485.444H465.122V488.252H462.218V498.5H459.074ZM471.968 498.788C470.96 498.788 470.08 498.564 469.328 498.116C468.592 497.668 468.024 497.044 467.624 496.244C467.24 495.444 467.048 494.508 467.048 493.436V485.444H470.192V493.172C470.192 493.716 470.296 494.196 470.504 494.612C470.728 495.012 471.04 495.332 471.44 495.572C471.856 495.796 472.32 495.908 472.832 495.908C473.344 495.908 473.8 495.796 474.2 495.572C474.6 495.332 474.912 495.004 475.136 494.588C475.36 494.172 475.472 493.676 475.472 493.1V485.444H478.616V498.5H475.64V495.932L475.904 496.388C475.6 497.188 475.096 497.788 474.392 498.188C473.704 498.588 472.896 498.788 471.968 498.788ZM481.539 498.5V480.332H484.683V498.5H481.539ZM500.515 498.788C499.235 498.788 498.051 498.556 496.963 498.092C495.891 497.628 494.947 496.98 494.131 496.148C493.331 495.316 492.707 494.34 492.259 493.22C491.811 492.1 491.587 490.876 491.587 489.548C491.587 488.22 491.803 486.996 492.235 485.876C492.683 484.74 493.307 483.764 494.107 482.948C494.923 482.116 495.875 481.476 496.963 481.028C498.051 480.564 499.235 480.332 500.515 480.332C501.795 480.332 502.939 480.548 503.947 480.98C504.971 481.412 505.835 481.988 506.539 482.708C507.243 483.412 507.747 484.188 508.051 485.036L505.123 486.404C504.787 485.508 504.219 484.772 503.419 484.196C502.619 483.604 501.651 483.308 500.515 483.308C499.395 483.308 498.403 483.572 497.539 484.1C496.691 484.628 496.027 485.356 495.547 486.284C495.083 487.212 494.851 488.3 494.851 489.548C494.851 490.796 495.083 491.892 495.547 492.836C496.027 493.764 496.691 494.492 497.539 495.02C498.403 495.548 499.395 495.812 500.515 495.812C501.651 495.812 502.619 495.524 503.419 494.948C504.219 494.356 504.787 493.612 505.123 492.716L508.051 494.084C507.747 494.932 507.243 495.716 506.539 496.436C505.835 497.14 504.971 497.708 503.947 498.14C502.939 498.572 501.795 498.788 500.515 498.788ZM516.587 498.788C515.307 498.788 514.139 498.492 513.083 497.9C512.043 497.308 511.211 496.5 510.587 495.476C509.979 494.452 509.675 493.284 509.675 491.972C509.675 490.66 509.979 489.492 510.587 488.468C511.211 487.444 512.043 486.636 513.083 486.044C514.123 485.452 515.291 485.156 516.587 485.156C517.867 485.156 519.027 485.452 520.067 486.044C521.107 486.636 521.931 487.444 522.539 488.468C523.163 489.476 523.475 490.644 523.475 491.972C523.475 493.284 523.163 494.452 522.539 495.476C521.915 496.5 521.083 497.308 520.043 497.9C519.003 498.492 517.851 498.788 516.587 498.788ZM516.587 495.908C517.291 495.908 517.907 495.74 518.435 495.404C518.979 495.068 519.403 494.604 519.707 494.012C520.027 493.404 520.187 492.724 520.187 491.972C520.187 491.204 520.027 490.532 519.707 489.956C519.403 489.364 518.979 488.9 518.435 488.564C517.907 488.212 517.291 488.036 516.587 488.036C515.867 488.036 515.235 488.212 514.691 488.564C514.147 488.9 513.715 489.364 513.395 489.956C513.091 490.532 512.939 491.204 512.939 491.972C512.939 492.724 513.091 493.404 513.395 494.012C513.715 494.604 514.147 495.068 514.691 495.404C515.235 495.74 515.867 495.908 516.587 495.908ZM525.859 498.5V485.444H528.811V488.468L528.475 487.964C528.715 487.02 529.195 486.316 529.915 485.852C530.635 485.388 531.483 485.156 532.459 485.156C533.531 485.156 534.475 485.436 535.291 485.996C536.107 486.556 536.635 487.292 536.875 488.204L535.987 488.276C536.387 487.236 536.987 486.46 537.787 485.948C538.587 485.42 539.507 485.156 540.547 485.156C541.475 485.156 542.299 485.364 543.019 485.78C543.755 486.196 544.331 486.78 544.747 487.532C545.163 488.268 545.371 489.124 545.371 490.1V498.5H542.227V490.844C542.227 490.268 542.123 489.772 541.915 489.356C541.707 488.94 541.419 488.62 541.051 488.396C540.683 488.156 540.235 488.036 539.707 488.036C539.211 488.036 538.771 488.156 538.387 488.396C538.003 488.62 537.707 488.94 537.499 489.356C537.291 489.772 537.187 490.268 537.187 490.844V498.5H534.043V490.844C534.043 490.268 533.939 489.772 533.731 489.356C533.523 488.94 533.227 488.62 532.843 488.396C532.475 488.156 532.035 488.036 531.523 488.036C531.027 488.036 530.587 488.156 530.203 488.396C529.819 488.62 529.523 488.94 529.315 489.356C529.107 489.772 529.003 490.268 529.003 490.844V498.5H525.859ZM548.031 498.5V485.444H550.983V488.468L550.647 487.964C550.887 487.02 551.367 486.316 552.087 485.852C552.807 485.388 553.655 485.156 554.631 485.156C555.703 485.156 556.647 485.436 557.463 485.996C558.279 486.556 558.807 487.292 559.047 488.204L558.159 488.276C558.559 487.236 559.159 486.46 559.959 485.948C560.759 485.42 561.679 485.156 562.719 485.156C563.647 485.156 564.471 485.364 565.191 485.78C565.927 486.196 566.503 486.78 566.919 487.532C567.335 488.268 567.543 489.124 567.543 490.1V498.5H564.399V490.844C564.399 490.268 564.295 489.772 564.087 489.356C563.879 488.94 563.591 488.62 563.223 488.396C562.855 488.156 562.407 488.036 561.879 488.036C561.383 488.036 560.943 488.156 560.559 488.396C560.175 488.62 559.879 488.94 559.671 489.356C559.463 489.772 559.359 490.268 559.359 490.844V498.5H556.215V490.844C556.215 490.268 556.111 489.772 555.903 489.356C555.695 488.94 555.399 488.62 555.015 488.396C554.647 488.156 554.207 488.036 553.695 488.036C553.199 488.036 552.759 488.156 552.375 488.396C551.991 488.62 551.695 488.94 551.487 489.356C551.279 489.772 551.175 490.268 551.175 490.844V498.5H548.031ZM574.859 498.788C573.851 498.788 572.971 498.564 572.219 498.116C571.483 497.668 570.915 497.044 570.515 496.244C570.131 495.444 569.939 494.508 569.939 493.436V485.444H573.083V493.172C573.083 493.716 573.187 494.196 573.395 494.612C573.619 495.012 573.931 495.332 574.331 495.572C574.747 495.796 575.211 495.908 575.723 495.908C576.235 495.908 576.691 495.796 577.091 495.572C577.491 495.332 577.803 495.004 578.027 494.588C578.251 494.172 578.363 493.676 578.363 493.1V485.444H581.507V498.5H578.531V495.932L578.795 496.388C578.491 497.188 577.987 497.788 577.283 498.188C576.595 498.588 575.787 498.788 574.859 498.788ZM584.43 498.5V485.444H587.382V488.012L587.142 487.556C587.446 486.772 587.942 486.18 588.63 485.78C589.334 485.364 590.15 485.156 591.078 485.156C592.038 485.156 592.886 485.364 593.622 485.78C594.374 486.196 594.958 486.78 595.374 487.532C595.79 488.268 595.998 489.124 595.998 490.1V498.5H592.854V490.844C592.854 490.268 592.742 489.772 592.518 489.356C592.294 488.94 591.982 488.62 591.582 488.396C591.198 488.156 590.742 488.036 590.214 488.036C589.702 488.036 589.246 488.156 588.846 488.396C588.446 488.62 588.134 488.94 587.91 489.356C587.686 489.772 587.574 490.268 587.574 490.844V498.5H584.43ZM598.656 498.5V485.444H601.8V498.5H598.656ZM598.656 483.98V480.62H601.8V483.98H598.656ZM610.655 498.644C609.183 498.644 608.039 498.244 607.223 497.444C606.423 496.628 606.023 495.484 606.023 494.012V488.252H603.767V485.444H604.007C604.647 485.444 605.143 485.276 605.495 484.94C605.847 484.604 606.023 484.116 606.023 483.476V482.468H609.167V485.444H612.167V488.252H609.167V493.844C609.167 494.276 609.239 494.644 609.383 494.948C609.543 495.252 609.783 495.484 610.103 495.644C610.439 495.804 610.863 495.884 611.375 495.884C611.487 495.884 611.615 495.876 611.759 495.86C611.919 495.844 612.071 495.828 612.215 495.812V498.5C611.991 498.532 611.735 498.564 611.447 498.596C611.159 498.628 610.895 498.644 610.655 498.644ZM616.201 503.804C615.849 503.804 615.505 503.772 615.169 503.708C614.833 503.66 614.529 503.572 614.257 503.444V500.804C614.465 500.852 614.713 500.9 615.001 500.948C615.305 500.996 615.585 501.02 615.841 501.02C616.561 501.02 617.081 500.852 617.401 500.516C617.737 500.18 618.033 499.74 618.289 499.196L619.153 497.18L619.105 499.82L613.417 485.444H616.801L620.785 496.052H619.585L623.545 485.444H626.953L621.265 499.82C620.929 500.668 620.521 501.388 620.041 501.98C619.561 502.572 619.001 503.02 618.361 503.324C617.737 503.644 617.017 503.804 616.201 503.804ZM636.377 498.5V483.5H631.745V480.62H644.225V483.5H639.665V498.5H636.377ZM645.953 498.5V480.332H649.097V488.012L648.665 487.556C648.969 486.772 649.465 486.18 650.153 485.78C650.857 485.364 651.673 485.156 652.601 485.156C653.561 485.156 654.409 485.364 655.145 485.78C655.897 486.196 656.481 486.78 656.897 487.532C657.313 488.268 657.521 489.124 657.521 490.1V498.5H654.377V490.844C654.377 490.268 654.265 489.772 654.041 489.356C653.817 488.94 653.505 488.62 653.105 488.396C652.721 488.156 652.265 488.036 651.737 488.036C651.225 488.036 650.769 488.156 650.369 488.396C649.969 488.62 649.657 488.94 649.433 489.356C649.209 489.772 649.097 490.268 649.097 490.844V498.5H645.953ZM660.18 498.5V485.444H663.132V488.348L662.892 487.916C663.196 486.94 663.668 486.26 664.308 485.876C664.964 485.492 665.748 485.3 666.66 485.3H667.428V488.084H666.3C665.404 488.084 664.684 488.364 664.14 488.924C663.596 489.468 663.324 490.236 663.324 491.228V498.5H660.18ZM675.54 498.788C674.26 498.788 673.092 498.492 672.036 497.9C670.996 497.308 670.164 496.5 669.54 495.476C668.932 494.452 668.628 493.284 668.628 491.972C668.628 490.66 668.932 489.492 669.54 488.468C670.164 487.444 670.996 486.636 672.036 486.044C673.076 485.452 674.244 485.156 675.54 485.156C676.82 485.156 677.98 485.452 679.02 486.044C680.06 486.636 680.884 487.444 681.492 488.468C682.116 489.476 682.428 490.644 682.428 491.972C682.428 493.284 682.116 494.452 681.492 495.476C680.868 496.5 680.036 497.308 678.996 497.9C677.956 498.492 676.804 498.788 675.54 498.788ZM675.54 495.908C676.244 495.908 676.86 495.74 677.388 495.404C677.932 495.068 678.356 494.604 678.66 494.012C678.98 493.404 679.14 492.724 679.14 491.972C679.14 491.204 678.98 490.532 678.66 489.956C678.356 489.364 677.932 488.9 677.388 488.564C676.86 488.212 676.244 488.036 675.54 488.036C674.82 488.036 674.188 488.212 673.644 488.564C673.1 488.9 672.668 489.364 672.348 489.956C672.044 490.532 671.892 491.204 671.892 491.972C671.892 492.724 672.044 493.404 672.348 494.012C672.668 494.604 673.1 495.068 673.644 495.404C674.188 495.74 674.82 495.908 675.54 495.908ZM689.468 498.788C688.46 498.788 687.58 498.564 686.828 498.116C686.092 497.668 685.524 497.044 685.124 496.244C684.74 495.444 684.548 494.508 684.548 493.436V485.444H687.692V493.172C687.692 493.716 687.796 494.196 688.004 494.612C688.228 495.012 688.54 495.332 688.94 495.572C689.356 495.796 689.82 495.908 690.332 495.908C690.844 495.908 691.3 495.796 691.7 495.572C692.1 495.332 692.412 495.004 692.636 494.588C692.86 494.172 692.972 493.676 692.972 493.1V485.444H696.116V498.5H693.14V495.932L693.404 496.388C693.1 497.188 692.596 497.788 691.892 498.188C691.204 498.588 690.396 498.788 689.468 498.788ZM705.375 503.78C704.399 503.78 703.495 503.62 702.663 503.3C701.831 502.98 701.111 502.532 700.503 501.956C699.911 501.396 699.479 500.732 699.207 499.964L702.135 498.86C702.327 499.468 702.703 499.956 703.263 500.324C703.839 500.708 704.543 500.9 705.375 500.9C706.015 500.9 706.575 500.78 707.055 500.54C707.551 500.3 707.935 499.948 708.207 499.484C708.479 499.036 708.615 498.492 708.615 497.852V494.876L709.215 495.596C708.767 496.38 708.167 496.972 707.415 497.372C706.663 497.772 705.807 497.972 704.847 497.972C703.631 497.972 702.543 497.692 701.583 497.132C700.623 496.572 699.871 495.804 699.327 494.828C698.783 493.852 698.511 492.756 698.511 491.54C698.511 490.308 698.783 489.212 699.327 488.252C699.871 487.292 700.615 486.54 701.559 485.996C702.503 485.436 703.575 485.156 704.775 485.156C705.751 485.156 706.607 485.364 707.343 485.78C708.095 486.18 708.719 486.764 709.215 487.532L708.783 488.324V485.444H711.759V497.852C711.759 498.988 711.479 500.004 710.919 500.9C710.375 501.796 709.623 502.5 708.663 503.012C707.719 503.524 706.623 503.78 705.375 503.78ZM705.231 495.068C705.903 495.068 706.487 494.924 706.983 494.636C707.495 494.332 707.895 493.916 708.183 493.388C708.471 492.86 708.615 492.252 708.615 491.564C708.615 490.892 708.463 490.292 708.159 489.764C707.871 489.22 707.471 488.796 706.959 488.492C706.463 488.188 705.887 488.036 705.231 488.036C704.575 488.036 703.983 488.188 703.455 488.492C702.927 488.796 702.511 489.22 702.207 489.764C701.919 490.292 701.775 490.892 701.775 491.564C701.775 492.236 701.919 492.836 702.207 493.364C702.511 493.892 702.919 494.308 703.431 494.612C703.959 494.916 704.559 495.068 705.231 495.068ZM714.695 498.5V480.332H717.839V488.012L717.407 487.556C717.711 486.772 718.207 486.18 718.895 485.78C719.599 485.364 720.415 485.156 721.343 485.156C722.303 485.156 723.151 485.364 723.887 485.78C724.639 486.196 725.223 486.78 725.639 487.532C726.055 488.268 726.263 489.124 726.263 490.1V498.5H723.119V490.844C723.119 490.268 723.007 489.772 722.783 489.356C722.559 488.94 722.247 488.62 721.847 488.396C721.463 488.156 721.007 488.036 720.479 488.036C719.967 488.036 719.511 488.156 719.111 488.396C718.711 488.62 718.399 488.94 718.175 489.356C717.951 489.772 717.839 490.268 717.839 490.844V498.5H714.695ZM739.835 498.788C738.699 498.788 737.643 498.58 736.667 498.164C735.707 497.748 734.875 497.172 734.171 496.436C733.483 495.684 732.979 494.812 732.659 493.82L735.371 492.644C735.803 493.668 736.427 494.476 737.243 495.068C738.059 495.644 738.979 495.932 740.003 495.932C740.579 495.932 741.075 495.844 741.491 495.668C741.923 495.476 742.251 495.22 742.475 494.9C742.715 494.58 742.835 494.196 742.835 493.748C742.835 493.22 742.675 492.788 742.355 492.452C742.051 492.1 741.587 491.828 740.963 491.636L737.531 490.532C736.139 490.1 735.091 489.452 734.387 488.588C733.683 487.724 733.331 486.708 733.331 485.54C733.331 484.516 733.579 483.612 734.075 482.828C734.587 482.044 735.291 481.436 736.187 481.004C737.099 480.556 738.139 480.332 739.307 480.332C740.379 480.332 741.363 480.524 742.259 480.908C743.155 481.276 743.923 481.796 744.563 482.468C745.219 483.124 745.707 483.9 746.027 484.796L743.339 485.996C742.987 485.1 742.459 484.412 741.755 483.932C741.051 483.436 740.235 483.188 739.307 483.188C738.763 483.188 738.283 483.284 737.867 483.476C737.451 483.652 737.123 483.908 736.883 484.244C736.659 484.564 736.547 484.948 736.547 485.396C736.547 485.892 736.707 486.332 737.027 486.716C737.347 487.084 737.835 487.372 738.491 487.58L741.779 488.612C743.203 489.076 744.267 489.716 744.971 490.532C745.691 491.348 746.051 492.356 746.051 493.556C746.051 494.58 745.787 495.484 745.259 496.268C744.731 497.052 744.003 497.668 743.075 498.116C742.147 498.564 741.067 498.788 739.835 498.788ZM752.569 498.788C751.657 498.788 750.865 498.636 750.193 498.332C749.521 498.028 749.001 497.596 748.633 497.036C748.265 496.46 748.081 495.796 748.081 495.044C748.081 494.324 748.241 493.684 748.561 493.124C748.881 492.548 749.377 492.068 750.049 491.684C750.721 491.3 751.569 491.028 752.593 490.868L756.865 490.172V492.572L753.193 493.196C752.569 493.308 752.105 493.508 751.801 493.796C751.497 494.084 751.345 494.46 751.345 494.924C751.345 495.372 751.513 495.732 751.849 496.004C752.201 496.26 752.633 496.388 753.145 496.388C753.801 496.388 754.377 496.252 754.873 495.98C755.385 495.692 755.777 495.3 756.049 494.804C756.337 494.308 756.481 493.764 756.481 493.172V489.812C756.481 489.252 756.257 488.788 755.809 488.42C755.377 488.036 754.801 487.844 754.081 487.844C753.409 487.844 752.809 488.028 752.281 488.396C751.769 488.748 751.393 489.22 751.153 489.812L748.585 488.564C748.841 487.876 749.241 487.284 749.785 486.788C750.345 486.276 751.001 485.876 751.753 485.588C752.505 485.3 753.321 485.156 754.201 485.156C755.273 485.156 756.217 485.356 757.033 485.756C757.849 486.14 758.481 486.684 758.929 487.388C759.393 488.076 759.625 488.884 759.625 489.812V498.5H756.649V496.268L757.321 496.22C756.985 496.78 756.585 497.252 756.121 497.636C755.657 498.004 755.129 498.292 754.537 498.5C753.945 498.692 753.289 498.788 752.569 498.788ZM768.603 498.788C767.339 498.788 766.211 498.492 765.219 497.9C764.227 497.292 763.443 496.468 762.867 495.428C762.291 494.388 762.003 493.236 762.003 491.972C762.003 490.692 762.291 489.54 762.867 488.516C763.443 487.492 764.227 486.676 765.219 486.068C766.227 485.46 767.347 485.156 768.579 485.156C769.571 485.156 770.451 485.356 771.219 485.756C772.003 486.14 772.619 486.684 773.067 487.388L772.587 488.036V480.332H775.731V498.5H772.755V495.98L773.091 496.604C772.643 497.308 772.019 497.852 771.219 498.236C770.419 498.604 769.547 498.788 768.603 498.788ZM768.939 495.908C769.659 495.908 770.291 495.74 770.835 495.404C771.379 495.068 771.803 494.604 772.107 494.012C772.427 493.42 772.587 492.74 772.587 491.972C772.587 491.22 772.427 490.548 772.107 489.956C771.803 489.348 771.379 488.876 770.835 488.54C770.291 488.204 769.659 488.036 768.939 488.036C768.235 488.036 767.603 488.212 767.043 488.564C766.483 488.9 766.043 489.364 765.723 489.956C765.419 490.532 765.267 491.204 765.267 491.972C765.267 492.74 765.419 493.42 765.723 494.012C766.043 494.604 766.483 495.068 767.043 495.404C767.603 495.74 768.235 495.908 768.939 495.908ZM782.616 498.788C781.704 498.788 780.912 498.636 780.24 498.332C779.568 498.028 779.048 497.596 778.68 497.036C778.312 496.46 778.128 495.796 778.128 495.044C778.128 494.324 778.288 493.684 778.608 493.124C778.928 492.548 779.424 492.068 780.096 491.684C780.768 491.3 781.616 491.028 782.64 490.868L786.912 490.172V492.572L783.24 493.196C782.616 493.308 782.152 493.508 781.848 493.796C781.544 494.084 781.392 494.46 781.392 494.924C781.392 495.372 781.56 495.732 781.896 496.004C782.248 496.26 782.68 496.388 783.192 496.388C783.848 496.388 784.424 496.252 784.92 495.98C785.432 495.692 785.824 495.3 786.096 494.804C786.384 494.308 786.528 493.764 786.528 493.172V489.812C786.528 489.252 786.304 488.788 785.856 488.42C785.424 488.036 784.848 487.844 784.128 487.844C783.456 487.844 782.856 488.028 782.328 488.396C781.816 488.748 781.44 489.22 781.2 489.812L778.632 488.564C778.888 487.876 779.288 487.284 779.832 486.788C780.392 486.276 781.048 485.876 781.8 485.588C782.552 485.3 783.368 485.156 784.248 485.156C785.32 485.156 786.264 485.356 787.08 485.756C787.896 486.14 788.528 486.684 788.976 487.388C789.44 488.076 789.672 488.884 789.672 489.812V498.5H786.696V496.268L787.368 496.22C787.032 496.78 786.632 497.252 786.168 497.636C785.704 498.004 785.176 498.292 784.584 498.5C783.992 498.692 783.336 498.788 782.616 498.788ZM802.634 503.3V495.98L803.138 496.604C802.69 497.308 802.066 497.852 801.266 498.236C800.466 498.604 799.594 498.788 798.65 498.788C797.386 498.788 796.258 498.492 795.266 497.9C794.274 497.292 793.49 496.468 792.914 495.428C792.338 494.388 792.05 493.236 792.05 491.972C792.05 490.692 792.338 489.54 792.914 488.516C793.49 487.492 794.274 486.676 795.266 486.068C796.274 485.46 797.394 485.156 798.626 485.156C799.618 485.156 800.498 485.356 801.266 485.756C802.05 486.14 802.666 486.684 803.114 487.388L802.802 488.036V485.444H805.778V503.3H802.634ZM798.986 495.908C799.706 495.908 800.338 495.74 800.882 495.404C801.426 495.068 801.85 494.604 802.154 494.012C802.474 493.42 802.634 492.74 802.634 491.972C802.634 491.22 802.474 490.548 802.154 489.956C801.85 489.348 801.426 488.876 800.882 488.54C800.338 488.204 799.706 488.036 798.986 488.036C798.282 488.036 797.65 488.212 797.09 488.564C796.53 488.9 796.09 489.364 795.77 489.956C795.466 490.532 795.314 491.204 795.314 491.972C795.314 492.74 795.466 493.42 795.77 494.012C796.09 494.604 796.53 495.068 797.09 495.404C797.65 495.74 798.282 495.908 798.986 495.908ZM812.663 498.788C811.751 498.788 810.959 498.636 810.287 498.332C809.615 498.028 809.095 497.596 808.727 497.036C808.359 496.46 808.175 495.796 808.175 495.044C808.175 494.324 808.335 493.684 808.655 493.124C808.975 492.548 809.471 492.068 810.143 491.684C810.815 491.3 811.663 491.028 812.687 490.868L816.959 490.172V492.572L813.287 493.196C812.663 493.308 812.199 493.508 811.895 493.796C811.591 494.084 811.439 494.46 811.439 494.924C811.439 495.372 811.607 495.732 811.943 496.004C812.295 496.26 812.727 496.388 813.239 496.388C813.895 496.388 814.471 496.252 814.967 495.98C815.479 495.692 815.871 495.3 816.143 494.804C816.431 494.308 816.575 493.764 816.575 493.172V489.812C816.575 489.252 816.351 488.788 815.903 488.42C815.471 488.036 814.895 487.844 814.175 487.844C813.503 487.844 812.903 488.028 812.375 488.396C811.863 488.748 811.487 489.22 811.247 489.812L808.679 488.564C808.935 487.876 809.335 487.284 809.879 486.788C810.439 486.276 811.095 485.876 811.847 485.588C812.599 485.3 813.415 485.156 814.295 485.156C815.367 485.156 816.311 485.356 817.127 485.756C817.943 486.14 818.575 486.684 819.023 487.388C819.487 488.076 819.719 488.884 819.719 489.812V498.5H816.743V496.268L817.415 496.22C817.079 496.78 816.679 497.252 816.215 497.636C815.751 498.004 815.223 498.292 814.631 498.5C814.039 498.692 813.383 498.788 812.663 498.788ZM822.625 498.5V480.332H825.769V488.012L825.337 487.556C825.641 486.772 826.137 486.18 826.825 485.78C827.529 485.364 828.345 485.156 829.273 485.156C830.233 485.156 831.081 485.364 831.817 485.78C832.569 486.196 833.153 486.78 833.569 487.532C833.985 488.268 834.193 489.124 834.193 490.1V498.5H831.049V490.844C831.049 490.268 830.937 489.772 830.713 489.356C830.489 488.94 830.177 488.62 829.777 488.396C829.393 488.156 828.937 488.036 828.409 488.036C827.897 488.036 827.441 488.156 827.041 488.396C826.641 488.62 826.329 488.94 826.105 489.356C825.881 489.772 825.769 490.268 825.769 490.844V498.5H822.625ZM841.381 498.5V480.62H853.261V483.5H844.645V488.084H852.781V490.964H844.645V495.62H853.261V498.5H841.381ZM854.214 498.5L858.774 491.948L854.19 485.444H857.886L861.462 490.724H859.806L863.382 485.444H867.054L862.494 491.948L867.03 498.5H863.358L859.83 493.244H861.438L857.91 498.5H854.214ZM874.593 498.788C873.297 498.788 872.129 498.492 871.089 497.9C870.065 497.292 869.257 496.476 868.665 495.452C868.073 494.412 867.777 493.244 867.777 491.948C867.777 490.652 868.073 489.492 868.665 488.468C869.257 487.444 870.065 486.636 871.089 486.044C872.129 485.452 873.297 485.156 874.593 485.156C875.521 485.156 876.385 485.324 877.185 485.66C877.985 485.98 878.673 486.428 879.249 487.004C879.841 487.564 880.265 488.236 880.521 489.02L877.761 490.22C877.521 489.564 877.113 489.036 876.537 488.636C875.977 488.236 875.329 488.036 874.593 488.036C873.905 488.036 873.289 488.204 872.745 488.54C872.217 488.876 871.801 489.34 871.497 489.932C871.193 490.524 871.041 491.204 871.041 491.972C871.041 492.74 871.193 493.42 871.497 494.012C871.801 494.604 872.217 495.068 872.745 495.404C873.289 495.74 873.905 495.908 874.593 495.908C875.345 495.908 876.001 495.708 876.561 495.308C877.121 494.908 877.521 494.372 877.761 493.7L880.521 494.948C880.265 495.684 879.849 496.348 879.273 496.94C878.697 497.516 878.009 497.972 877.209 498.308C876.409 498.628 875.537 498.788 874.593 498.788ZM882.906 498.5V480.332H886.05V488.012L885.618 487.556C885.922 486.772 886.418 486.18 887.106 485.78C887.81 485.364 888.626 485.156 889.554 485.156C890.514 485.156 891.362 485.364 892.098 485.78C892.85 486.196 893.434 486.78 893.85 487.532C894.266 488.268 894.474 489.124 894.474 490.1V498.5H891.33V490.844C891.33 490.268 891.218 489.772 890.994 489.356C890.77 488.94 890.458 488.62 890.058 488.396C889.674 488.156 889.218 488.036 888.69 488.036C888.178 488.036 887.722 488.156 887.322 488.396C886.922 488.62 886.61 488.94 886.386 489.356C886.162 489.772 886.05 490.268 886.05 490.844V498.5H882.906ZM901.093 498.788C900.181 498.788 899.389 498.636 898.717 498.332C898.045 498.028 897.525 497.596 897.157 497.036C896.789 496.46 896.605 495.796 896.605 495.044C896.605 494.324 896.765 493.684 897.085 493.124C897.405 492.548 897.901 492.068 898.573 491.684C899.245 491.3 900.093 491.028 901.117 490.868L905.389 490.172V492.572L901.717 493.196C901.093 493.308 900.629 493.508 900.325 493.796C900.021 494.084 899.869 494.46 899.869 494.924C899.869 495.372 900.037 495.732 900.373 496.004C900.725 496.26 901.157 496.388 901.669 496.388C902.325 496.388 902.901 496.252 903.397 495.98C903.909 495.692 904.301 495.3 904.573 494.804C904.861 494.308 905.005 493.764 905.005 493.172V489.812C905.005 489.252 904.781 488.788 904.333 488.42C903.901 488.036 903.325 487.844 902.605 487.844C901.933 487.844 901.333 488.028 900.805 488.396C900.293 488.748 899.917 489.22 899.677 489.812L897.109 488.564C897.365 487.876 897.765 487.284 898.309 486.788C898.869 486.276 899.525 485.876 900.277 485.588C901.029 485.3 901.845 485.156 902.725 485.156C903.797 485.156 904.741 485.356 905.557 485.756C906.373 486.14 907.005 486.684 907.453 487.388C907.917 488.076 908.149 488.884 908.149 489.812V498.5H905.173V496.268L905.845 496.22C905.509 496.78 905.109 497.252 904.645 497.636C904.181 498.004 903.653 498.292 903.061 498.5C902.469 498.692 901.813 498.788 901.093 498.788ZM911.055 498.5V485.444H914.007V488.012L913.767 487.556C914.071 486.772 914.567 486.18 915.255 485.78C915.959 485.364 916.775 485.156 917.703 485.156C918.663 485.156 919.511 485.364 920.247 485.78C920.999 486.196 921.583 486.78 921.999 487.532C922.415 488.268 922.623 489.124 922.623 490.1V498.5H919.479V490.844C919.479 490.268 919.367 489.772 919.143 489.356C918.919 488.94 918.607 488.62 918.207 488.396C917.823 488.156 917.367 488.036 916.839 488.036C916.327 488.036 915.871 488.156 915.471 488.396C915.071 488.62 914.759 488.94 914.535 489.356C914.311 489.772 914.199 490.268 914.199 490.844V498.5H911.055ZM931.617 503.78C930.641 503.78 929.737 503.62 928.905 503.3C928.073 502.98 927.353 502.532 926.745 501.956C926.153 501.396 925.721 500.732 925.449 499.964L928.377 498.86C928.569 499.468 928.945 499.956 929.505 500.324C930.081 500.708 930.785 500.9 931.617 500.9C932.257 500.9 932.817 500.78 933.297 500.54C933.793 500.3 934.177 499.948 934.449 499.484C934.721 499.036 934.857 498.492 934.857 497.852V494.876L935.457 495.596C935.009 496.38 934.409 496.972 933.657 497.372C932.905 497.772 932.049 497.972 931.089 497.972C929.873 497.972 928.785 497.692 927.825 497.132C926.865 496.572 926.113 495.804 925.569 494.828C925.025 493.852 924.753 492.756 924.753 491.54C924.753 490.308 925.025 489.212 925.569 488.252C926.113 487.292 926.857 486.54 927.801 485.996C928.745 485.436 929.817 485.156 931.017 485.156C931.993 485.156 932.849 485.364 933.585 485.78C934.337 486.18 934.961 486.764 935.457 487.532L935.025 488.324V485.444H938.001V497.852C938.001 498.988 937.721 500.004 937.161 500.9C936.617 501.796 935.865 502.5 934.905 503.012C933.961 503.524 932.865 503.78 931.617 503.78ZM931.473 495.068C932.145 495.068 932.729 494.924 933.225 494.636C933.737 494.332 934.137 493.916 934.425 493.388C934.713 492.86 934.857 492.252 934.857 491.564C934.857 490.892 934.705 490.292 934.401 489.764C934.113 489.22 933.713 488.796 933.201 488.492C932.705 488.188 932.129 488.036 931.473 488.036C930.817 488.036 930.225 488.188 929.697 488.492C929.169 488.796 928.753 489.22 928.449 489.764C928.161 490.292 928.017 490.892 928.017 491.564C928.017 492.236 928.161 492.836 928.449 493.364C928.753 493.892 929.161 494.308 929.673 494.612C930.201 494.916 930.801 495.068 931.473 495.068ZM947.129 498.788C945.785 498.788 944.609 498.484 943.601 497.876C942.593 497.268 941.809 496.444 941.249 495.404C940.689 494.364 940.409 493.212 940.409 491.948C940.409 490.636 940.689 489.476 941.249 488.468C941.825 487.444 942.601 486.636 943.577 486.044C944.569 485.452 945.673 485.156 946.889 485.156C947.913 485.156 948.809 485.324 949.577 485.66C950.361 485.996 951.025 486.46 951.569 487.052C952.113 487.644 952.529 488.324 952.817 489.092C953.105 489.844 953.249 490.66 953.249 491.54C953.249 491.764 953.233 491.996 953.201 492.236C953.185 492.476 953.145 492.684 953.081 492.86H943.001V490.46H951.305L949.817 491.588C949.961 490.852 949.921 490.196 949.697 489.62C949.489 489.044 949.137 488.588 948.641 488.252C948.161 487.916 947.577 487.748 946.889 487.748C946.233 487.748 945.649 487.916 945.137 488.252C944.625 488.572 944.233 489.052 943.961 489.692C943.705 490.316 943.609 491.076 943.673 491.972C943.609 492.772 943.713 493.484 943.985 494.108C944.273 494.716 944.689 495.188 945.233 495.524C945.793 495.86 946.433 496.028 947.153 496.028C947.873 496.028 948.481 495.876 948.977 495.572C949.489 495.268 949.889 494.86 950.177 494.348L952.721 495.596C952.465 496.22 952.065 496.772 951.521 497.252C950.977 497.732 950.329 498.108 949.577 498.38C948.841 498.652 948.025 498.788 947.129 498.788Z" fill="#A7B9C1"/>
<rect x="580.567" y="608.5" width="225" height="59" rx="10" fill="#00FFD6"/>
<path d="M663.483 632.804C663.259 632.804 663.131 632.852 663.099 632.948L658.507 643.764C658.486 643.807 658.475 643.865 658.475 643.94C658.475 644.036 658.507 644.105 658.571 644.148C658.635 644.18 658.704 644.196 658.779 644.196V644.5H655.819V644.196C655.894 644.196 655.963 644.18 656.027 644.148C656.091 644.105 656.123 644.036 656.123 643.94C656.123 643.865 656.112 643.807 656.091 643.764L651.499 632.948C651.467 632.852 651.339 632.804 651.115 632.804V632.5H654.219V632.804C654.091 632.804 654.006 632.836 653.963 632.9C653.92 632.964 653.915 633.028 653.947 633.092L657.355 641.38L660.667 633.092C660.688 633.028 660.651 632.964 660.555 632.9C660.47 632.836 660.363 632.804 660.235 632.804V632.5H663.483V632.804ZM665.903 635.796C665.562 635.796 665.269 635.679 665.023 635.444C664.789 635.209 664.671 634.916 664.671 634.564C664.671 634.233 664.789 633.951 665.023 633.716C665.269 633.471 665.562 633.348 665.903 633.348C666.245 633.348 666.533 633.471 666.767 633.716C667.002 633.951 667.119 634.233 667.119 634.564C667.119 634.916 667.002 635.209 666.767 635.444C666.533 635.679 666.245 635.796 665.903 635.796ZM664.863 637.62C664.863 637.567 664.821 637.524 664.735 637.492C664.661 637.46 664.586 637.444 664.511 637.444V637.14H667.263V637.444C667.189 637.444 667.109 637.46 667.023 637.492C666.949 637.524 666.911 637.567 666.911 637.62V644.02C666.911 644.073 666.949 644.116 667.023 644.148C667.109 644.18 667.189 644.196 667.263 644.196V644.5H664.511V644.196C664.586 644.196 664.661 644.18 664.735 644.148C664.821 644.116 664.863 644.073 664.863 644.02V637.62ZM672.687 636.804C673.509 636.804 674.218 636.985 674.815 637.348C675.413 637.7 675.866 638.18 676.175 638.788C676.485 639.396 676.639 640.068 676.639 640.804C676.639 641.028 676.623 641.252 676.591 641.476H670.735C670.778 641.988 671.002 642.388 671.407 642.676C671.813 642.964 672.298 643.108 672.863 643.108C673.247 643.108 673.567 643.055 673.823 642.948C674.09 642.841 674.325 642.681 674.527 642.468C674.549 642.425 674.559 642.399 674.559 642.388C674.559 642.345 674.543 642.303 674.511 642.26C674.479 642.207 674.447 642.169 674.415 642.148L674.607 641.908L676.383 643.3L676.207 643.54C676.047 643.444 675.935 643.433 675.871 643.508C675.125 644.404 674.122 644.852 672.863 644.852C672.053 644.852 671.338 644.676 670.719 644.324C670.101 643.961 669.621 643.481 669.279 642.884C668.949 642.276 668.783 641.604 668.783 640.868C668.783 640.089 668.949 639.391 669.279 638.772C669.61 638.153 670.069 637.673 670.655 637.332C671.253 636.98 671.93 636.804 672.687 636.804ZM674.719 639.988C674.677 639.551 674.453 639.183 674.047 638.884C673.653 638.575 673.205 638.42 672.703 638.42C672.202 638.42 671.77 638.575 671.407 638.884C671.045 639.183 670.826 639.551 670.751 639.988H674.719ZM682.41 643.732L682.378 643.876C682.378 643.993 682.421 644.079 682.506 644.132C682.602 644.175 682.698 644.196 682.794 644.196V644.5H679.498V644.196C679.583 644.196 679.669 644.175 679.754 644.132C679.839 644.089 679.882 644.015 679.882 643.908C679.882 643.887 679.871 643.833 679.85 643.748L677.626 637.588C677.605 637.535 677.557 637.497 677.482 637.476C677.418 637.455 677.349 637.444 677.274 637.444V637.14H679.978V637.444C679.85 637.444 679.759 637.476 679.706 637.54C679.663 637.604 679.653 637.673 679.674 637.748L681.29 642.276L682.65 637.908C682.661 637.876 682.666 637.828 682.666 637.764C682.666 637.647 682.629 637.567 682.554 637.524C682.479 637.471 682.405 637.444 682.33 637.444V637.14H685.05V637.444C684.975 637.444 684.895 637.471 684.81 637.524C684.735 637.567 684.698 637.652 684.698 637.78C684.698 637.833 684.703 637.876 684.714 637.908L685.93 642.308L687.594 637.748C687.615 637.684 687.578 637.62 687.482 637.556C687.386 637.481 687.274 637.444 687.146 637.444V637.14H689.754V637.444C689.679 637.444 689.605 637.455 689.53 637.476C689.466 637.497 689.423 637.535 689.402 637.588L687.21 643.748C687.189 643.791 687.178 643.844 687.178 643.908C687.178 644.015 687.221 644.089 687.306 644.132C687.391 644.175 687.477 644.196 687.562 644.196V644.5H684.186V644.196C684.282 644.196 684.378 644.175 684.474 644.132C684.581 644.079 684.634 643.988 684.634 643.86C684.634 643.807 684.629 643.764 684.618 643.732L683.61 639.844L682.41 643.732ZM709.067 644.02C709.067 644.073 709.105 644.116 709.179 644.148C709.265 644.18 709.35 644.196 709.435 644.196V644.5H706.635V644.196C706.721 644.196 706.801 644.18 706.875 644.148C706.961 644.116 707.003 644.073 707.003 644.02V634.852L702.315 645.108L697.643 634.82V644.02C697.643 644.073 697.681 644.116 697.755 644.148C697.841 644.18 697.926 644.196 698.011 644.196V644.5H695.195V644.196C695.281 644.196 695.361 644.18 695.435 644.148C695.521 644.116 695.563 644.073 695.563 644.02V632.98C695.563 632.927 695.521 632.884 695.435 632.852C695.361 632.82 695.286 632.804 695.211 632.804V632.5H699.339V632.804C699.211 632.804 699.126 632.836 699.083 632.9C699.051 632.953 699.051 633.017 699.083 633.092L702.331 640.644L705.627 633.092C705.649 633.028 705.617 632.964 705.531 632.9C705.446 632.836 705.339 632.804 705.211 632.804V632.5H709.419V632.804C709.345 632.804 709.265 632.82 709.179 632.852C709.105 632.884 709.067 632.927 709.067 632.98V644.02ZM714.799 644.692C714.01 644.692 713.311 644.527 712.703 644.196C712.106 643.855 711.636 643.391 711.295 642.804C710.964 642.217 710.799 641.556 710.799 640.82C710.799 640.095 710.964 639.433 711.295 638.836C711.636 638.239 712.111 637.769 712.719 637.428C713.327 637.076 714.02 636.9 714.799 636.9C715.546 636.9 716.223 637.071 716.831 637.412C717.439 637.743 717.919 638.207 718.271 638.804C718.623 639.391 718.799 640.063 718.799 640.82C718.799 641.481 718.639 642.111 718.319 642.708C718.01 643.295 717.551 643.775 716.943 644.148C716.335 644.511 715.62 644.692 714.799 644.692ZM714.799 642.852C715.428 642.852 715.935 642.671 716.319 642.308C716.714 641.935 716.911 641.455 716.911 640.868C716.911 640.26 716.714 639.759 716.319 639.364C715.935 638.969 715.428 638.772 714.799 638.772C714.212 638.772 713.722 638.969 713.327 639.364C712.932 639.748 712.735 640.233 712.735 640.82C712.735 641.439 712.932 641.935 713.327 642.308C713.722 642.671 714.212 642.852 714.799 642.852ZM725.028 636.66V639.236H724.724C724.724 639.161 724.708 639.076 724.676 638.98C724.644 638.884 724.601 638.831 724.548 638.82H724.436C724.105 638.82 723.769 638.916 723.428 639.108C723.097 639.289 722.82 639.535 722.596 639.844C722.383 640.143 722.276 640.463 722.276 640.804V644.02C722.276 644.073 722.313 644.116 722.388 644.148C722.473 644.18 722.553 644.196 722.628 644.196V644.5H719.94V644.196C720.015 644.196 720.089 644.18 720.164 644.148C720.249 644.116 720.292 644.073 720.292 644.02V637.62C720.292 637.567 720.249 637.524 720.164 637.492C720.089 637.46 720.015 637.444 719.94 637.444V637.14H722.276V637.828C722.564 637.561 722.911 637.348 723.316 637.188C723.721 637.028 724.127 636.948 724.532 636.948H724.548H724.564C724.617 636.948 724.655 636.916 724.676 636.852C724.708 636.788 724.724 636.724 724.724 636.66H725.028ZM729.734 636.804C730.556 636.804 731.265 636.985 731.862 637.348C732.46 637.7 732.913 638.18 733.222 638.788C733.532 639.396 733.686 640.068 733.686 640.804C733.686 641.028 733.67 641.252 733.638 641.476H727.782C727.825 641.988 728.049 642.388 728.454 642.676C728.86 642.964 729.345 643.108 729.91 643.108C730.294 643.108 730.614 643.055 730.87 642.948C731.137 642.841 731.372 642.681 731.574 642.468C731.596 642.425 731.606 642.399 731.606 642.388C731.606 642.345 731.59 642.303 731.558 642.26C731.526 642.207 731.494 642.169 731.462 642.148L731.654 641.908L733.43 643.3L733.254 643.54C733.094 643.444 732.982 643.433 732.918 643.508C732.172 644.404 731.169 644.852 729.91 644.852C729.1 644.852 728.385 644.676 727.766 644.324C727.148 643.961 726.668 643.481 726.326 642.884C725.996 642.276 725.83 641.604 725.83 640.868C725.83 640.089 725.996 639.391 726.326 638.772C726.657 638.153 727.116 637.673 727.702 637.332C728.3 636.98 728.977 636.804 729.734 636.804ZM731.766 639.988C731.724 639.551 731.5 639.183 731.094 638.884C730.7 638.575 730.252 638.42 729.75 638.42C729.249 638.42 728.817 638.575 728.454 638.884C728.092 639.183 727.873 639.551 727.798 639.988H731.766Z" fill="#1E201D"/>
<g filter="url(#filter1_f_380_150)">
<ellipse cx="1145.31" cy="551.28" rx="121.879" ry="104.313" transform="rotate(-51.8609 1145.31 551.28)" fill="#00FFD6" fill-opacity="0.08"/>
</g>
</g>
<defs>
<filter id="filter0_f_380_150" x="-35.85" y="60.9688" width="491.767" height="493.019" filterUnits="userSpaceOnUse" color-interpolation-filters="sRGB">
<feFlood flood-opacity="0" result="BackgroundImageFix"/>
<feBlend mode="normal" in="SourceGraphic" in2="BackgroundImageFix" result="shape"/>
<feGaussianBlur stdDeviation="50" result="effect1_foregroundBlur_380_150"/>
</filter>
<filter id="filter1_f_380_150" x="933.972" y="335.774" width="422.682" height="431.014" filterUnits="userSpaceOnUse" color-interpolation-filters="sRGB">
<feFlood flood-opacity="0" result="BackgroundImageFix"/>
<feBlend mode="normal" in="SourceGraphic" in2="BackgroundImageFix" result="shape"/>
<feGaussianBlur stdDeviation="50" result="effect1_foregroundBlur_380_150"/>
</filter>
<clipPath id="clip0_380_150">
<rect width="1440" height="1024" fill="white"/>
</clipPath>
</defs>
</svg>
